<svg height="128" viewBox="0 0 33.866664 33.866664" width="128" xmlns="http://www.w3.org/2000/svg"><g fill="#fff" stroke="#100f0f" stroke-opacity=".490196" stroke-width=".264583" transform="translate(0 -263.13334)"><path d="m8.2367234 279.30945-2.9450569 1.81556 4.2333505 1.5434-1.0583336 3.175 5.2916666-2.11666 3.175 4.23333 3.175-4.23333 5.291666 2.11666-1.058333-3.175 4.233316-1.5434-2.944505-1.81556c-.08621.0914-.175298.1794-.269234.25993-.62054.53197-1.393755.89857-2.27118 1.19114-1.75485.58516-3.951298.84956-6.156213.84956s-4.40188-.2644-6.15673-.84956c-.8774253-.29257-1.6506405-.65917-2.2711791-1.19114-.093936-.0805-.183029-.16857-.2692345-.25993z"/><path d="m16.93335 272.08508c-4.233333 0-8.4666661 1.05834-8.4666663 3.175v2.11667c.0000002 2.11666 4.2333333 3.175 8.4666663 3.175s8.466667-1.05834 8.466667-3.175v-2.11667c0-2.11666-4.233334-3.175-8.466667-3.175zm-7.408333 3.175c3.175 2.11667 11.641666 2.11667 14.816666 0-3.175 3.175-11.641666 3.175-14.816666 0z"/></g></svg>