<svg height="128" viewBox="0 0 33.866664 33.866664" width="128" xmlns="http://www.w3.org/2000/svg"><g fill="#fff" stroke="#100f0f" stroke-opacity=".490196" stroke-width=".264583" transform="translate(0 -263.13334)"><path d="m8.2367057 284.11604-2.9450571 1.81556 4.2333506 1.5434-1.0583336 3.175 5.2916664-2.11666 3.175 4.23333 3.175-4.23333 5.291667 2.11666-1.058334-3.175 4.233317-1.5434-2.944505-1.81556c-.08621.0914-.175299.1794-.269235.25993-.62054.53197-1.393755.89857-2.27118 1.19114-1.75485.58516-3.951298.84956-6.156213.84956s-4.40188-.2644-6.15673-.84956c-.8774251-.29257-1.6506402-.65917-2.2711789-1.19114-.093936-.0805-.1830289-.16857-.2692344-.25993z"/><path d="m16.933332 276.89167c-4.233333 0-8.4666658 1.05834-8.4666661 3.175v2.11667c.0000003 2.11666 4.2333331 3.175 8.4666661 3.175s8.466668-1.05834 8.466668-3.175v-2.11667c0-2.11666-4.233335-3.175-8.466668-3.175zm-7.4083328 3.175c3.1749998 2.11667 11.6416658 2.11667 14.8166658 0-3.175 3.175-11.641666 3.175-14.8166658 0z"/><path d="m16.933333 268.42501-4.233333 6.35001h8.466666z"/><path d="m4.233333 271.60001 6.349999-4.23332v8.46666z"/><path d="m29.63333 271.6-6.349998-4.23332v8.46666z"/></g></svg>