<svg height="128" viewBox="0 0 33.866664 33.866664" width="128" xmlns="http://www.w3.org/2000/svg"><g fill="#fff" stroke="#100f0f" stroke-opacity=".490196" transform="translate(0 -263.13334)"><path d="m60 16 1.359375 12.228516c.873366-.148855 1.756699-.230469 2.642578-.230469 2.717466 0 5.405449.715825 7.871094 2.058594 1.318185-3.371635 2.684285-6.726248 4.126953-10.056641z" transform="matrix(.26458333 0 0 .26458333 0 263.13334)"/><path d="m64.001953 84.328125c-.755554 2.72742-1.239296 5.275207-2.244141 8.039063-1.72825 4.753578-3.81301 9.376232-6.414062 13.332032 1.676865 3.91578 4.35476 6.30078 8.65625 6.30078 4.245288 0 6.875403-2.49287 8.515625-6.52148-2.534069-3.90715-4.575136-8.445494-6.271484-13.111332-1.004848-2.763856-1.486634-5.311643-2.242188-8.039063z" transform="matrix(.26458333 0 0 .26458333 0 263.13334)"/><path d="m12.699999 277.95001c0 4.23333-2.116667 10.58333-4.2333326 10.58333-2.116667 0-4.2333335-4.23333-4.2333331 0-.0000004 2.11667 2.1166661 4.23333 6.3499987 4.23333 4.233333 0 6.35-10.58333 6.35-12.7 0 2.11667 2.116666 12.7 6.349999 12.7s6.35-2.11666 6.349999-4.23333c.000001-4.23333-2.116666 0-4.233333 0-2.116666 0-4.233332-6.35-4.233332-10.58333s-2.116667-6.35-4.233333-6.35-4.233333 2.11667-4.233333 6.35z" stroke-width=".264583"/></g></svg>