<svg height="128" viewBox="0 0 33.866664 33.866664" width="128" xmlns="http://www.w3.org/2000/svg"><g fill="#fff" stroke="#100f0f" stroke-opacity=".490196" transform="translate(0 -263.13334)"><g transform="matrix(.26458333 0 0 .26458333 0 263.13334)"><path d="m36.388672 62.646484c-9.599446 6.707928-15.331558 15.696193-12.388672 33.353516 4.181756-8.363525 10.54809-12.335061 16.816406-14.240234-2.738109-6.954998-3.921813-12.815116-4.427734-19.113282z"/><path d="m91.611328 62.646484c-.507463 6.298443-1.692862 12.158762-4.43164 19.113282 6.269478 1.904739 12.637755 5.875108 16.820312 14.240234 2.94286-17.65714-2.7894-26.64561-12.388672-33.353516z"/><path d="m64 16c-15.999999 7.999975-24 24.000025-24 32-.000004 15.999987.000003 24.000013 8 40h32c8.000001-15.999987 8-24.000013 8-40 0-7.999975-8.000001-24.000025-24-32zm0 24a7.9999996 7.9999996 0 0 1 8 8 7.9999996 7.9999996 0 0 1 -8 8 7.9999996 7.9999996 0 0 1 -8-8 7.9999996 7.9999996 0 0 1 8-8z"/></g><path d="m13.758333 287.47501c0 1.05833 0 3.175 1.058333 3.175 0-1.05834 0-1.05834 1.058333-1.05834.000001 2.11667 0 2.11667 1.058334 3.175 1.058333-1.05833 1.058333-1.05833 1.058333-3.175 1.058334 0 1.058333 0 1.058333 1.05834 1.058334 0 1.058334-2.11667 1.058334-3.175z" stroke-width=".264583"/></g></svg>