<svg height="64" viewBox="0 0 16.933332 16.933332" width="64" xmlns="http://www.w3.org/2000/svg"><g fill="#fff" stroke="#100f0f" stroke-opacity=".490196" transform="translate(0 -280.06667)"><path d="m12 20c5.808616 11.617225 15.891624 16.998174 25.53125 19.005859.707776-3.503292.806791-7.104542.816406-11.486328-8.73518-.741907-19.026089-2.638501-26.347656-7.519531z" transform="matrix(.26458333 0 0 .26458333 0 280.06667)"/><path d="m16 36c2.869794 8.60938 9.855315 13.084709 16.529297 14.935547 1.700468-2.747681 2.899272-5.182742 3.751953-7.511719-6.226431-.803719-13.250238-2.736502-20.28125-7.423828z" transform="matrix(.26458333 0 0 .26458333 0 280.06667)"/><path d="m14.816666 283.24167c-3.175 0-8.4666662 0-12.6999995-1.05833 1.0583334 2.11666 6.3499999 4.23333 9.5249995 4.23333 0 3.175 0 5.29167-2.1166663 8.46667 4.2333333-1.05834 5.2916663-6.35 5.2916663-11.64167z" stroke-width=".265"/></g></svg>