<svg height="128" viewBox="0 0 33.866664 33.866664" width="128" xmlns="http://www.w3.org/2000/svg"><g fill="#fff" stroke="#898989" stroke-width=".264583" transform="translate(0 -263.13334)"><path d="m9.5250004 267.36667c-1.168999 0-2.1166614.94766-2.1166666 2.11667.0007848.75543.404114 1.45318 1.0583333 1.8309v19.33576h-1.0583333v2.11667h4.2333332v-2.11667h-1.058333v-19.3368c.653898-.37753 1.057178-1.0748 1.058333-1.82986-.000005-1.16901-.947667-2.11667-2.1166666-2.11667z" stroke-opacity=".996078"/><path d="m11.641667 271.60001h7.408333c1.058334 0 2.116667 1.05833 2.116667 2.11666v8.46667h-9.525z"/><path d="m22.225 274.775h4.233333v10.58333l-7.408333.00001c-1.058333 0-2.116667-1.05833-2.116666-2.11665l5.291666-.00002z"/></g></svg>