<svg height="128" viewBox="0 0 33.866664 33.866664" width="128" xmlns="http://www.w3.org/2000/svg"><g fill="#fff" stroke="#100f0f" stroke-opacity=".490196" transform="translate(0 -263.13334)"><path d="m4.2333329 269.48335c-.0000002 8.46666 2.1166665 10.58332 10.5833321 10.58332v4.23334h-2.116667c-2.116666-.00002-2.116666-.00002-2.116666 2.11666 4.198736.00001 8.783547 0 12.699998 0 0-2.11666.000001-2.11666-2.116666-2.11666h-2.116666v-4.23334c8.466666 0 10.583332-2.11666 10.583334-10.58332h-4.233334v-2.11668h-16.9333321v2.11668zm2.1166665 2.11666h2.1166665c0 2.11666 0 4.23334 2.1166661 6.35-4.2333326 0-4.2333326-4.23334-4.2333326-6.35zm19.0499986 0h2.116666c0 2.11666 0 6.35-4.233334 6.35 2.116668-2.11666 2.116668-4.23334 2.116668-6.35z" stroke-width=".264583"/><path d="m8.466666 287.47501h16.933331v5.291656h-16.933331z" stroke-width=".265"/></g></svg>