<svg height="160" viewBox="0 0 78.316668 42.333335" width="296" xmlns="http://www.w3.org/2000/svg"><g stroke="#fecea8" stroke-width="2.11667"><path d="m11.641666 39.158333 2.116667-16.933333 12.7-14.8166662 12.700001-4.2333333 12.7 4.2333333 12.7 14.8166662 2.116665 16.933333z" fill="#fecea8" fill-opacity=".25"/><path d="m13.758333 22.225 14.816667-4.233334h21.166667l14.816667 4.233334" fill="none"/><path d="m23.283333 11.112501-11.641667 2.645833-8.4666661 12.699999.0000001 4.233333h9.525l1.058333-8.466666z" fill="#fecea8" fill-opacity=".25098"/><g fill="none"><path d="m26.458333 7.4083337 12.7 2.1166667 12.7-2.1166667"/><path d="m3.175 26.458333h10.583333"/><path d="m17.991666 26.458333v6.35h14.816667v-8.466667h-6.35z"/></g><path d="m55.033334 11.112501 11.641666 2.645833 8.466667 12.699999v4.233333h-9.525l-1.058333-8.466666z" fill="#fecea8" fill-opacity=".25098"/><g fill="none"><path d="m75.141667 26.458333h-10.583333"/><path d="m60.325 26.458333v6.35h-14.816666v-8.466667h6.35z"/></g></g></svg>