<svg height="128" viewBox="0 0 33.866666 33.866668" width="128" xmlns="http://www.w3.org/2000/svg"><g fill="none" stroke-linecap="round" stroke-linejoin="round" transform="translate(0 -263.13332)"><path d="m18.393834 289.48582-1.460501 2.43417-1.460499-2.43417-3.407834.48683 1.947333-2.921-1.947333-2.921 3.407834.48684 1.460499-2.43417 1.460501 2.43417 3.407833-.48684-1.947333 2.921 1.947333 2.921" opacity=".8" stroke="#333" stroke-width="2.5"/><path d="m18.393834 289.48582-1.460501 2.43417-1.460499-2.43417-3.407834.48683 1.947333-2.921-1.947333-2.921 3.407834.48684 1.460499-2.43417 1.460501 2.43417 3.407833-.48684-1.947333 2.921 1.947333 2.921" opacity=".8" stroke="#ccc" stroke-width="2"/><path d="m10.371667 276.89165h-5.0799987l4.2333314-8.46666 4.2333333 8.46666" opacity=".8" stroke="#333" stroke-width="2.5"/><path d="m10.371667 276.89165h-5.0799988l4.2333315-8.46666 4.2333323 8.46666" opacity=".8" stroke="#ccc" stroke-width="2"/><path d="m20.108339 271.81165v5.08l8.46666-4.23333-8.46666-4.23334" opacity=".8" stroke="#333" stroke-width="2.5"/><path d="m20.108339 271.81165v5.08l8.46666-4.23333-8.46666-4.23334" opacity=".8" stroke="#ccc" stroke-width="2"/></g></svg>