<svg height="128" viewBox="0 0 33.866666 33.866668" width="128" xmlns="http://www.w3.org/2000/svg" xmlns:xlink="http://www.w3.org/1999/xlink"><linearGradient id="a"><stop offset="0" stop-color="#0f6"/><stop offset="1" stop-color="#0f6" stop-opacity="0"/></linearGradient><radialGradient id="b" cx="16.933332" cy="280.06665" gradientTransform="matrix(1.5000001 .00000103 -.00000103 1.5000009 -8.466381 -140.03361)" gradientUnits="userSpaceOnUse" r="12.7"><stop offset="0" stop-color="#6f916f"/><stop offset="1" stop-color="#374837"/></radialGradient><radialGradient id="c" cx="16.933332" cy="280.06665" gradientTransform="matrix(.65304051 -.0000093 .0000093 .65305085 5.872577 97.169105)" gradientUnits="userSpaceOnUse" r="6.482499"><stop offset="0" stop-color="#2affd5"/><stop offset="1" stop-color="#00d4aa"/></radialGradient><radialGradient id="d" cx="16.933332" cy="269.483315" gradientUnits="userSpaceOnUse" r="2.116667" xlink:href="#a"/><radialGradient id="e" cx="16.933332" cy="280.06665" gradientUnits="userSpaceOnUse" r="12.7" xlink:href="#a"/><radialGradient id="f" cx="25.4" cy="280.06665" gradientUnits="userSpaceOnUse" r="2.116667" xlink:href="#a"/><radialGradient id="g" cx="8.466666" cy="280.06665" gradientUnits="userSpaceOnUse" r="2.116667" xlink:href="#a"/><radialGradient id="h" cx="16.933332" cy="288.53333" gradientUnits="userSpaceOnUse" r="2.116667" xlink:href="#a"/><radialGradient id="i" cx="16.933332" cy="271.59998" gradientUnits="userSpaceOnUse" r="2.116667" xlink:href="#a"/><g transform="translate(0 -263.13332)"><circle cx="16.933332" cy="280.06665" fill="url(#e)" r="12.7"/><circle cx="6.349999" cy="280.06665" fill="url(#d)" r="2.116667"/><ellipse cx="16.933332" cy="280.06665" fill="url(#b)" rx="10.583333" ry="10.583329"/><ellipse cx="16.933332" cy="280.06665" fill="url(#c)" rx="5.291666" ry="5.291663" stroke="#008066" stroke-opacity=".990909" stroke-width=".265"/><circle cx="8.466666" cy="280.06665" fill="url(#g)" r="2.116667"/><circle cx="8.466666" cy="280.06665" fill="#0f6" r="1.058333"/><circle cx="25.4" cy="280.06665" fill="url(#f)" r="2.116667"/><circle cx="25.4" cy="280.06665" fill="#0f6" r="1.058333"/><circle cx="16.933332" cy="288.53333" fill="url(#h)" r="2.116667"/><circle cx="16.933332" cy="288.53333" fill="#0f6" r="1.058333"/><circle cx="16.933332" cy="271.59998" fill="url(#i)" r="2.116667"/><circle cx="16.933332" cy="271.59998" fill="#0f6" r="1.058333"/></g></svg>