<svg height="184" viewBox="0 0 47.624998 48.683334" width="180" xmlns="http://www.w3.org/2000/svg"><path d="m23.715606 4.4979481a19.307431 19.307431 0 0 0 -19.210538 19.3074319 19.307431 19.307431 0 0 0 .00209.268158h-.00209v1.072636h.00209c.1466504 10.557514 8.746808 19.039147 19.30534 19.039272 10.558534-.000125 19.158692-8.481758 19.305337-19.039272h.0021v-1.072636h-.0021a19.307431 19.307431 0 0 0 .002097-.268158 19.307431 19.307431 0 0 0 -19.307432-19.3074319 19.307431 19.307431 0 0 0 -.09689 0z"/><path d="m4.7625 23.8125-.0000001 1.322917h.00207c.1446875 10.416749 8.6301761 18.785292 19.0479301 18.785416 10.417754-.000124 18.903243-8.368667 19.047933-18.785416h.0021l-.000033-1.322917z" fill="#333"/><circle cx="23.8125" cy="23.8125" fill="#4d4d4d" r="19.049999"/><path d="m23.812499 11.112494 2.916049 5.66004 6.064211-1.9403-1.940295 6.06421 5.660041 2.916051-5.66004 2.91605 1.940294 6.06421-6.06421-1.94029-2.916049 5.660041-2.91605-5.660041-6.06421 1.94029 1.940294-6.06421-5.660039-2.91605 5.660039-2.916051-1.940294-6.06421 6.064209 1.9403z" fill="#fff" stroke="#100f0f" stroke-opacity=".490196" stroke-width=".264999"/></svg>