<svg height="304" viewBox="0 0 80.433327 80.433325" width="304" xmlns="http://www.w3.org/2000/svg"><path d="m152 14c-17.93278 0-35.85786 3.553198-52.425781 10.390625-16.567919 6.837427-31.766368 16.953614-44.447266 29.587891-12.680898 12.634276-22.834215 27.775251-29.697265 44.283203-6.863051 16.507951-10.429685 34.369991-10.429688 52.238281a1.0001002 1.0001002 0 0 0 0 .002c.000462.44272.003.88544.0078 1.32813-.0027.89629-.0079 1.79895-.0078 2.16992 0 76.74791 61.358646 137 137 137 75.64137 0 137-60.25209 137-137-.00024-.35391-.005-1.21849-.008-2.08203v-.006c-.00002-.004.00001-.006 0-.01.005-.467.008-.93531.008-1.40234 0-17.86829-3.56664-35.73033-10.42969-52.238281-6.86305-16.507632-17.01637-31.648607-29.69726-44.282883-12.6809-12.634277-27.87935-22.750464-44.44727-29.587891s-34.493-10.390625-52.42578-10.390625z" fill-rule="evenodd" stroke-width=".999999" transform="scale(.26458331)"/><path d="m16.013672 150c-.0093.66662-.01388 3.33331-.01367 4 0 76.21529 60.889274 136 135.999998 136 75.11073 0 135.99999-59.7847 135.99999-136-.00045-.6667-.006-3.33338-.0156-4z" fill="#333" fill-rule="evenodd" stroke-width=".999999" transform="scale(.26458331)"/><ellipse cx="40.216663" cy="39.81979" fill="#4d4d4d" fill-rule="evenodd" rx="35.98333" ry="35.85104" stroke-width=".264583"/><path d="m40.216662 3.9687497c-4.107055 0-12.03854.0000002-12.03854 10.8479153v12.964583h-12.964582c-10.8479149 0-10.847916 7.402318-10.847916 11.509374 0 4.095027.0000011 12.567707 10.847916 12.567707h12.964582v12.964582c0 10.847916 7.931485 10.847916 12.03854 10.847916 4.095029 0 12.038541 0 12.038541-10.847916v-12.964582h12.964582c10.847916 0 10.847916-8.47268 10.847916-12.567707 0-4.107056 0-11.509374-10.847916-11.509374h-12.964582v-12.964583c0-10.8479151-7.943512-10.8479153-12.038541-10.8479153z" fill="#333"/><path d="m40.216662 4.233333c-4.101042 0-11.773957.0000002-11.773957 10.583332v13.229166h-13.178006c-10.5833313 0-10.6344917 7.143749-10.6344917 11.244791 0 4.101041.0000005 11.24479 10.5833327 11.24479h13.229165v13.229166c.000001 10.583332 7.672915 10.583332 11.773957 10.583332s11.773958 0 11.773958-10.583332v-13.229166h13.229165c10.583333 0 10.583333-7.143749 10.583333-11.24479 0-4.101042-.05116-11.244791-10.634493-11.244791h-13.178005v-13.229166c0-10.5833318-7.672916-10.583332-11.773958-10.583332z" fill="#4d4d4d"/><g fill="#fff" stroke="#100f0f" stroke-opacity=".490196" stroke-width=".264583"><path d="m22.835926 32.940622-12.700002 6.35 12.700002 6.349999z"/><path d="m33.866663 21.909885 6.349999-12.7000006 6.349999 12.7000006z"/><path d="m57.597399 32.940622 12.700001 6.35-12.700001 6.349999z"/><path d="m33.866664 56.671358 6.349999 12.700001 6.349999-12.700001z"/></g></svg>