<svg height="128" viewBox="0 0 135.46666 33.866668" width="512" xmlns="http://www.w3.org/2000/svg"><g transform="translate(0 -263.13332)"><g fill="#ffb030" stroke="#f17b13" stroke-opacity=".490196"><path d="m5.2916559 267.36665v25.4h12.7000011l.000001-5.29167-4.233325.00001c-2.116667 0-3.175-1.05834-3.175-3.175v-12.7z" stroke-width=".264583"/><path d="m108 16v96h36.375c7.62499 0 11.625-3.99999 11.625-12v-32c0-8.000013-4.00004-12-12-12v-28c0-7.999975-4-12-12-12zm16 56c12 0 16 .000013 16 10 0 10.000025-4 10-16 10z" transform="matrix(.26458333 0 0 .26458333 0 263.13332)"/><path d="m20.108322 267.3667h6.35001v4.233288h-6.35001z" stroke-width=".265"/><path d="m20.108322 273.71667h6.35001v19.049978h-6.35001z" stroke-width=".265"/><path d="m58.20833 267.36665v25.4h12.7l-4.233321-5.29166c-2.116678 0-3.175011-1.05834-3.175-2.64584-.000011-1.5875 1.058322-2.64583 3.174997-2.64583l.000003-4.23333c-2.116678 0-3.175011-1.05834-3.175-2.64584-.000011-1.5875 1.058322-2.64583 3.175-2.64583l4.233321-5.29167z" stroke-width=".264583"/><path d="m43.391678 267.36665h6.349987c2.116667 0 3.175 1.05834 3.175 3.175l.000011 7.40834c2.116656 0 3.174989 1.05833 3.174989 3.175l.000011 11.64166-6.35-6.35-6.349998 6.35z" stroke-width=".264583"/></g><path d="m73.024999 267.36665h6.349987c2.116667 0 3.175 1.05834 3.175 3.175l.000011 7.40834c2.116656 0 3.174989 1.05833 3.174989 3.175l.000011 11.64166-6.35-6.35-6.349998 6.35z" fill="#ffd631" stroke="#f19c12" stroke-width=".264583"/><path d="m344 16c-8 0-12 4.000025-12 12v84l24-24 24 24v-84c0-7.999975-4-12-12-12zm12 20c8 0 8 3.999975 8 20h-16c0-16.000025 0-20 8-20z" fill="#ffd631" stroke="#f19c12" transform="matrix(.26458333 0 0 .26458333 0 263.13332)"/><path d="m456 16c-8.00001 0-12 4.000025-12 12v84l24-24 24 24v-84c0-7.999975-3.99999-12-12-12zm12 20c8.00001 0 8 3.999975 8 20h-16c0-16.000025.00003-20 8-20z" fill="#ffd631" stroke="#f19c12" transform="matrix(.26458333 0 0 .26458333 0 263.13332)"/><path d="m102.65833 292.76665v-25.4l6.35 3.175 6.35-3.175v25.4l-6.35-6.35z" fill="#ffd631" stroke="#f19c12" stroke-width=".264583"/><path d="m75.999997 60.000003.000001 4h24l-.000001-4zm.000001 8 .000001 12h24l-.000001-12zm.000002 19.999997v24h24v-24z" fill="#f17b13" transform="matrix(.26458333 0 0 .26458333 0 263.13332)"/><path d="m108 60v4h47.5918c-.35203-1.56483-.93868-2.894468-1.75-4zm0 8v12h16v-8c11.13305 0 15.37216.014567 15.92773 8h16.07227v-12zm0 20v24h36.375c7.62499 0 11.625-3.99999 11.625-12v-12h-16.92188c-1.76024 3.984874-6.24761 4-15.07812 4v-4z" fill="#f17b13" transform="matrix(.26458333 0 0 .26458333 0 263.13332)"/><path d="m164 60v4h47.5918c-.35203-1.564826-.93869-2.894466-1.75-4zm0 8v12h48v-12zm0 20v24l24-24zm24 0 24 24v-24z" fill="#f17b13" transform="matrix(.26458333 0 0 .26458333 0 263.13332)"/><path d="m332 60v4h48v-4zm0 8v12h48v-12zm0 20v24l24-24zm24 0 24 24v-24z" fill="#f19c12" transform="matrix(.26458333 0 0 .26458333 0 263.13332)"/><path d="m102.65833 279.00832v1.05833h12.7v-1.05833zm0 2.11667v3.175h12.7v-3.175zm0 5.29166v6.35l6.35-6.35zm6.35 0 6.35 6.35v-6.35z" fill="#f19c12"/><path d="m20 24v4l20 15v-4zm0 8v12l20 15v-12zm0 20v60h48v-20h-16c-8.000001 0-12-4.000025-12-12v-13z" fill="#f17b13" transform="matrix(.26458333 0 0 .26458333 0 263.13332)"/><path d="m491.64258 24.267578-17.94922 13.462891c.66412.698515 1.13968 1.647175 1.47461 2.892578l16.83203-12.623047c0-1.363391-.12507-2.601384-.35742-3.732422zm.35742 7.732422-16.25391 12.189453c.2516 2.910753.25391 6.760185.25391 11.810547l16-12zm-16 24h-16l-16 12v12zm-15.91992-8.060547-16.08008 12.060547v4l16.01172-12.007812c.00721-1.481065.03461-2.819083.06836-4.052735zm31.91992 4.060547-48 36v24l24-24 24 24z" fill="#f19c12" transform="matrix(.26458333 0 0 .26458333 0 263.13332)"/><path d="m276 24v4l36 27v-4zm0 8v12l48 36v-12zm0 20v60l24-24 24 24v-24zm37.39258 4.044922 10.10156 7.576172c-1.19935-4.693174-4.562-7.223235-10.10156-7.576172z" fill="#f19c12" transform="matrix(.26458333 0 0 .26458333 0 263.13332)"/><path d="m240.04492 44.966797-20.04492 15.033203v4l20.32812-15.246094c-.21166-.861531-.32813-1.777932-.32812-2.753906 0-.351743.01743-.695611.04492-1.033203zm1.61328 6.789062-21.6582 16.244141v12l32-24c-5.02765 0-8.47381-1.580926-10.3418-4.244141zm10.3418 12.244141-32 24v24h48l-16-20c-8.00004 0-12.00004-4-12-10-.00004-6 3.99997-10 12-10z" fill="#f17b13" transform="matrix(.26458333 0 0 .26458333 0 263.13332)"/></g></svg>