<svg height="64" viewBox="0 0 16.933332 16.933332" width="64" xmlns="http://www.w3.org/2000/svg"><g fill="#fff" stroke="#100f0f" stroke-opacity=".490196" transform="translate(0 -280.06667)"><path d="m32 8a23.999998 23.999998 0 0 0 -24 24 23.999998 23.999998 0 0 0 24 24 23.999998 23.999998 0 0 0 24-24 23.999998 23.999998 0 0 0 -24-24zm-4 8.521484v5.232422a10.999999 10.999999 0 0 1 4-.753906 10.999999 10.999999 0 0 1 4 .765625v-5.236328a15.999999 15.999999 0 0 1 11.478516 11.470703h-5.232422a10.999999 10.999999 0 0 1 .753906 4 10.999999 10.999999 0 0 1 -.765625 4h5.236328a15.999999 15.999999 0 0 1 -11.470703 11.478516v-5.232422a10.999999 10.999999 0 0 1 -4 .753906 10.999999 10.999999 0 0 1 -4-.765625v5.236328a15.999999 15.999999 0 0 1 -11.478516-11.470703h5.232422a10.999999 10.999999 0 0 1 -.753906-4 10.999999 10.999999 0 0 1 .765625-4h-5.236328a15.999999 15.999999 0 0 1 11.470703-11.478516z" stroke-width="1.001575" transform="matrix(.26458333 0 0 .26458333 0 280.06667)"/><circle cx="8.466666" cy="288.53333" r="1.5875" stroke-width=".265"/></g></svg>