<svg height="16" viewBox="0 0 4.233333 4.233333" width="16" xmlns="http://www.w3.org/2000/svg"><g fill="#fff" fill-opacity=".977064" transform="translate(0 -292.76667)"><path d="m1.3466879 293.18126c-.08925-.006-.2056735.09-.1560628.17596l.2408121.41703a1.3229165 1.5213517 0 0 0 -.2906799.27337c.6788682.4368 1.2729407.43659 1.9518188-.00026a1.3229165 1.5213517 0 0 0 -.3152262-.29145l.2299601-.39869c.066147-.11457-.1630209-.24687-.229185-.13229l-.2353861.40773a1.3229165 1.5213517 0 0 0 -.4260722-.0819 1.3229165 1.5213517 0 0 0 -.4537191.0951l-.2431375-.42091c-.016537-.0287-.043372-.0418-.073122-.0437z"/><path d="m.96247357 294.32985v.00026a1.3229164 1.5213517 0 0 0 -.1687235.74207 1.3229164 1.5213517 0 0 0 1.19062493 1.51205v-1.85053c-.3450376-.0277-.6895884-.16163-1.02190143-.40385z"/><path d="m3.2706013 294.33191c-.3298794.24105-.6744704.37492-1.021643.40179v1.85208a1.3229164 1.5213517 0 0 0 1.190625-1.5136 1.3229164 1.5213517 0 0 0 -.168982-.74027z"/></g></svg>