<svg height="16" viewBox="0 0 4.2333333 4.2333334" width="16" xmlns="http://www.w3.org/2000/svg"><path d="m1.3229167 293.03123c-.2645833 0-.39687498.13229-.39687498.39688v1.05833c-.2645833 0-.396875.13229-.396875.39688v1.4552c0 .26458.1322917.39688.396875.39688h2.38124988c.2645833 0 .396875-.13229.396875-.39688v-1.4552c0-.26459-.1322917-.39688-.396875-.39688v-1.05833c0-.26459-.1322917-.39688-.396875-.39688zm.396875.39688h.7937499c.396875 0 .396875 0 .396875.39687v.66146h-1.5874999v-.66146c0-.39687 0-.39687.396875-.39687z" fill="#fff" transform="translate(0 -292.76665)"/></svg>