<svg height="16" viewBox="0 0 4.2333333 4.2333334" width="16" xmlns="http://www.w3.org/2000/svg"><g fill="#fff" transform="translate(0 -292.76665)"><path d="m1.0583334 293.03124h.1322916c.2645833 0 .5291667.26458.5291667.52916v2.64584c0 .26457-.2645834.52916-.5291667.52916h-.1322916c-.26458343 0-.52916673-.26459-.52916673-.52916v-2.64584c0-.26458.2645834-.52916.52916673-.52916z"/><path d="m3.0427083 293.03124h.1322916c.2645833 0 .5291668.26458.5291668.52916l-.0000001 2.64584c0 .26457-.2645834.52916-.5291667.52916h-.1322916c-.2645833 0-.5291667-.26459-.5291667-.52916v-2.64584c0-.26458.2645834-.52916.5291667-.52916z"/></g></svg>