<svg height="16" viewBox="0 0 4.2333333 4.2333334" width="16" xmlns="http://www.w3.org/2000/svg"><path d="m3 1c-1.2688081 0-2 1.0000126-2 2v2c0 .972926 1.0000001 1.9453125 2 1.9453125l2 .0546875c.9999999 0 2-.9723865 2-1.9453125v-2.109375c0-.9730016-1.0000001-1.9453125-2-1.9453125zm8 0c-1.2688078 0-2 1.0000126-2 2v2c0 .972926 1 1.9453125 2 1.9453125l2 .0546875c.999999 0 2-.9723865 2-1.9453125v-2.109375c0-.9730015-1.000001-1.9453125-2-1.9453125zm-8 8c-1.2688076 0-2 1.000013-2 2v2c0 .972926 1.0000003 1.945312 2 1.945312l2 .054688c.9999995 0 2-.972387 2-1.945312v-2.109376c0-.9730011-1.0000005-1.945312-2-1.945312zm8 0c-1.2688078 0-2 1.000013-2 2v2c0 .972926 1 1.945312 2 1.945312l2 .054688c.999999 0 2-.972387 2-1.945312v-2.109376c0-.9730011-1.000001-1.945312-2-1.945312z" fill="#fff" stroke-width="3.77953" transform="scale(.26458333)"/></svg>