<svg height="16" viewBox="0 0 4.233333 4.233333" width="16" xmlns="http://www.w3.org/2000/svg"><path d="m7 1c-.5540076 0-1 .4459924-1 1v1.4238281a4.9999997 4.9999786 0 0 0 -.9628906.5566407l-1.2324219-.7128907c-.4797847-.2770038-1.0901837-.1125972-1.3671875.3671875l-1 1.7304688c-.2770038.4797847-.1125972 1.0901837.3671875 1.3671875l1.2285156.7089843a4.9999997 4.9999786 0 0 0 -.0332031.5585938 4.9999997 4.9999786 0 0 0 .0371094.5566406l-1.2324219.7109375c-.4797847.2770038-.6441913.8874029-.3671875 1.3671879l1 1.730468c.2770038.479785.8874028.644192 1.3671875.367188l1.2324219-.712891a4.9999997 4.9999786 0 0 0 .9628906.560547v1.419922c0 .554008.4459924 1 1 1h2c.5540076 0 1-.445992 1-1v-1.423828a4.9999997 4.9999786 0 0 0 .962891-.556641l1.232421.712891c.479785.277004 1.090184.112597 1.367188-.367188l1-1.730468c.277004-.479785.112597-1.0901841-.367188-1.3671879l-1.228515-.7089843a4.9999997 4.9999786 0 0 0 .033203-.5585938 4.9999997 4.9999786 0 0 0 -.037109-.5566406l1.232421-.7109375c.479785-.2770038.644192-.8874028.367188-1.3671875l-1-1.7304688c-.277004-.4797847-.887403-.6441913-1.367188-.3671875l-1.232421.7128907a4.9999997 4.9999786 0 0 0 -.962891-.5605469v-1.4199219c0-.5540076-.4459924-1-1-1zm1 5a1.9999999 1.9999999 0 0 1 2 2 1.9999999 1.9999999 0 0 1 -2 2 1.9999999 1.9999999 0 0 1 -2-2 1.9999999 1.9999999 0 0 1 2-2z" fill="#fff" transform="scale(.26458333)"/></svg>