<svg height="128" viewBox="0 0 101.6 33.866666" width="384" xmlns="http://www.w3.org/2000/svg"><circle cx="50.799999" cy="16.933332" fill="#ff2a2a" r="11.641666" stroke="#800000" stroke-linecap="square" stroke-width="2.11667"/><path d="m46.02813 15.199903.843579-3.938561 3.812195 1.300409 4.006474-.414791-.05873 4.027461 1.632559 3.682206-3.848492 1.188699-2.997497 2.69052-2.31977-3.292805-3.485114-2.019373z" fill="#ff8080" transform="matrix(.8660254 .5 -.5 .8660254 15.892588 -22.948401)"/><path d="m73.554166 28.575 11.1125-22.2250001 11.112499 22.2250001z" fill="#37c837" stroke="#165016" stroke-width="2.11667"/><path d="m79.904166 24.341666 4.7625-9.525 4.7625 9.525h-2.645834l-2.116666-3.704166-2.116667 3.704166z" fill="#80ff80"/><path d="m5.291667 5.291667h23.283333v23.283333h-23.283333z" fill="#59f" stroke="#003380" stroke-linecap="square" stroke-width="2.11667"/><path d="m38 38v12l12 4v20l-12 4v12h52v-12l-12-4v-20l12-4v-12z" fill="#acf" transform="scale(.26458333)"/></svg>