<svg height="64" viewBox="0 0 16.933332 16.933332" width="64" xmlns="http://www.w3.org/2000/svg"><g fill="#fff" stroke="#100f0f" stroke-opacity=".490196" stroke-width=".264583" transform="translate(0 -280.06667)"><path d="m3.9136152 288.38042-1.5418696.95053 2.2163491.80804-.5540852 1.66226 2.7704252-1.10817 1.662255 2.21634 1.6622553-2.21634 2.770424 1.10817-.554085-1.66226 2.216332-.80804-1.541581-.95053c-.04514.0479-.09178.0939-.140956.13609-.324881.2785-.729694.47045-1.189065.62361-.918742.30636-2.0686816.44479-3.2230536.44479s-2.3045819-.13843-3.2233246-.44479c-.4593716-.15317-.8641844-.34511-1.1890642-.62361-.04918-.0422-.095824-.0883-.1409564-.13609z"/><path d="m8.46668 284.06906c-2.2163398 0-4.43268.55408-4.4326801 1.66225v1.10817c.0000001 1.10816 2.2163403 1.66226 4.4326801 1.66226 2.21634 0 4.43268-.5541 4.43268-1.66226v-1.10817c0-1.10817-2.21634-1.66225-4.43268-1.66225z"/></g></svg>