<svg height="128" viewBox="0 0 33.866665 33.866668" width="128" xmlns="http://www.w3.org/2000/svg" xmlns:xlink="http://www.w3.org/1999/xlink"><radialGradient id="a" cx="16.933332" cy="280.06662" gradientUnits="userSpaceOnUse" r="12.7"><stop offset="0" stop-color="#ff2a2a"/><stop offset="1" stop-color="#ff2a2a" stop-opacity="0"/></radialGradient><g transform="translate(0 -263.13329)"><circle cx="16.933332" cy="280.06662" fill="url(#a)" r="12.7"/><ellipse cx="16.933332" cy="280.06662" fill="#571414" rx="7.408333" ry="7.408329"/><path d="m64 20a43.999999 43.999999 0 0 0 -44 44 43.999999 43.999999 0 0 0 44 44 43.999999 43.999999 0 0 0 44-44 43.999999 43.999999 0 0 0 -44-44zm0 8a35.999999 35.999999 0 0 1 36 36 35.999999 35.999999 0 0 1 -36 36 35.999999 35.999999 0 0 1 -36-36 35.999999 35.999999 0 0 1 36-36z" fill="#ff2a2a" transform="matrix(.26458333 0 0 .26458333 0 263.13329)"/><path d="m64 44a19.999999 19.999999 0 0 0 -20 20 19.999999 19.999999 0 0 0 20 20 19.999999 19.999999 0 0 0 20-20 19.999999 19.999999 0 0 0 -20-20zm0 4a15.999999 15.999999 0 0 1 16 16 15.999999 15.999999 0 0 1 -16 16 15.999999 15.999999 0 0 1 -16-16 15.999999 15.999999 0 0 1 16-16z" fill="#ff2a2a" transform="matrix(.26458333 0 0 .26458333 0 263.13329)"/><g fill="#571414"><circle cx="18.520834" cy="276.36246" r="1.5875"/><circle cx="19.579166" cy="270.01245" r="2.645833"/><circle cx="19.049999" cy="286.41663" r="2.116667"/><circle cx="22.225" cy="272.65829" r="2.116667"/><circle cx="15.875" cy="284.29996" r="1.058333"/><circle cx="9.525" cy="279.0083" r="2.116667"/><circle cx="12.7" cy="288.53329" r="3.175"/><circle cx="26.458332" cy="281.12497" r="2.116667"/></g></g></svg>