<svg height="128" viewBox="0 0 33.866666 33.866668" width="128" xmlns="http://www.w3.org/2000/svg"><path d="m63.755859 16a47.999999 47.999999 0 0 0 -47.755859 48 47.999999 47.999999 0 0 0 48 48 47.999999 47.999999 0 0 0 48-48 47.999999 47.999999 0 0 0 -48-48 47.999999 47.999999 0 0 0 -.244141 0zm.244141 16a31.999998 31.999998 0 0 1 32 32 31.999998 31.999998 0 0 1 -4.435547 16.25l-43.816406-43.816406a31.999998 31.999998 0 0 1 16.251953-4.433594zm-27.564453 15.75 43.816406 43.816406a31.999998 31.999998 0 0 1 -16.251953 4.433594 31.999998 31.999998 0 0 1 -32-32 31.999998 31.999998 0 0 1 4.435547-16.25z" fill="#ff2a2a" stroke="#1a1a1a" stroke-linecap="round" transform="scale(.26458333)"/></svg>