<svg height="128" viewBox="0 0 33.866666 33.866668" width="128" xmlns="http://www.w3.org/2000/svg"><path d="m92 16c-11.045694.000001-19.999998 8.954305-20 20 .000228 4.030403 1.218153 7.966706 3.494141 11.292969l-6.683594 4.574219-22.5625-15.47461c-15.038279-9.68764-26.375184-1.918782-30.248047 3.607422l35.076172 24-35.076172 24c3.872862 5.526206 15.209772 13.29506 30.248047 3.607422l22.5625-15.47461 6.683594 4.574219c-2.275987 3.32626-3.493914 7.262564-3.494141 11.292969 0 11.0457 8.954308 20 20 20 11.04569 0 20-8.9543 20-20 0-6.295151-2.96389-12.222914-8-16l-1.4043-.962891-16.093747-11.037109 16.093747-11.037109 1.4043-.962891c5.03611-3.777088 8-9.704854 8-16 0-11.045695-8.95431-19.999999-20-20zm0 12a7.9999996 7.9999996 0 0 1 8 8 7.9999996 7.9999996 0 0 1 -8 8 7.9999996 7.9999996 0 0 1 -8-8 7.9999996 7.9999996 0 0 1 8-8zm0 56a7.9999997 7.9999997 0 0 1 8 8 7.9999997 7.9999997 0 0 1 -8 8 7.9999997 7.9999997 0 0 1 -8-8 7.9999997 7.9999997 0 0 1 8-8z" fill="#5fd35f" stroke="#1a1a1a" stroke-linecap="round" stroke-width=".999999" transform="scale(.26458333)"/></svg>