<svg height="32" viewBox="0 0 33.866664 8.466666" width="128" xmlns="http://www.w3.org/2000/svg"><g fill="#fff" stroke="#100f0f" stroke-opacity=".490196" stroke-width=".264583"><path d="m21.695832 3.1749998 2.645834-2.1166666-5.820834.0000001c-.529167 0-1.058334.5291666-1.5875 1.0583332l-2.116666 2.1166666c-.514757.514756-1.058334 1.0583332-1.5875 1.0583332l-3.7041666.0000001v2.1166665l4.7624996-.0000001c.529167 0 1.056855-.5276882 1.5875-1.0583332l2.116666-2.1166665c.529167-.5291666 1.058334-1.0583333 1.5875-1.0583333z"/><path d="m18.520832 7.4083329c-.251481 0-.502996-.1216285-.754476-.3038574l1.812809-1.8128091h2.116666l2.645834 2.1166665zm-8.9958328-4.233333v-2.1166665h4.7624998c.251678 0 .50299.1215782.754475.3038576l-1.812808 1.8128089z"/></g></svg>